<svg width="256" height="256" viewBox="0 0 256 256" fill="none" xmlns="http://www.w3.org/2000/svg">
<path d="M229.847 173.054C223.007 173.054 216.561 170.375 211.713 165.515L173.951 127.659C170.151 123.85 167.662 119.095 166.771 113.92C166.247 110.899 166.273 107.799 166.849 104.778H155.686C152.961 104.778 151.808 106.591 151.362 107.668C150.917 108.745 150.445 110.846 152.384 112.79L168.71 129.157C172.51 132.966 174.999 137.721 175.89 142.896C176.729 147.677 176.152 152.616 174.292 157.187C172.405 161.732 169.313 165.62 165.356 168.431C161.058 171.452 155.974 173.054 150.602 173.054H150.078C143.238 173.054 136.792 170.375 131.944 165.515L128.328 161.889C126.598 164.438 124.449 166.644 121.933 168.404C117.636 171.426 112.552 173.028 107.18 173.028C100.34 173.028 93.8937 170.348 89.0457 165.488L29.8217 106.118C28.9307 105.225 27.7515 104.752 26.5198 104.752C23.7944 104.752 22.6414 106.564 22.1959 107.641C21.7504 108.719 21.2787 110.82 23.2179 112.764L39.5439 129.13C43.3436 132.94 45.8331 137.695 46.7241 142.87C47.5627 147.651 46.9862 152.59 45.1256 157.161C43.2388 161.706 40.1466 165.594 36.1896 168.404C31.8919 171.426 26.8081 173.028 21.436 173.028H13.9674C8.17606 173.028 3.48531 168.326 3.48531 162.52C3.48531 156.714 8.17606 152.012 13.9674 152.012H21.3311C24.0565 152.012 25.2095 150.199 25.655 149.122C26.1005 148.045 26.5722 145.943 24.633 143.999L8.3333 127.659C4.53352 123.85 2.04402 119.095 1.15303 113.92C0.314463 109.139 0.890981 104.2 2.75156 99.629C4.63834 95.0843 7.73057 91.1963 11.6876 88.3854C15.9853 85.3643 21.0953 83.7618 26.4674 83.7618C33.307 83.7618 39.7535 86.4414 44.6015 91.3014L103.826 150.672C104.717 151.565 105.896 152.038 107.127 152.038C109.853 152.038 111.006 150.225 111.451 149.148C111.897 148.071 112.368 145.97 110.456 144.052L68.2125 101.704C64.1245 97.6062 64.1245 90.9599 68.2125 86.8354C72.3005 82.711 78.9305 82.7373 83.0447 86.8354L125.262 129.157C125.288 129.183 125.288 129.183 125.314 129.209L146.724 150.672C147.615 151.565 148.794 152.038 150.026 152.038H150.55C153.275 152.038 154.428 150.225 154.874 149.148C155.319 148.071 155.791 145.97 153.852 144.026L137.552 127.659C133.752 123.85 131.263 119.095 130.372 113.92C129.533 109.139 130.11 104.2 131.97 99.629C133.857 95.0843 136.949 91.1963 140.906 88.3854C145.204 85.3643 150.314 83.7618 155.686 83.7618H198.374C204.166 83.7618 208.857 88.4642 208.857 94.2699C208.857 100.076 204.166 104.778 198.374 104.778H192.085C189.36 104.778 188.207 106.591 187.761 107.668C187.316 108.745 186.844 110.846 188.783 112.79L226.545 150.646C227.436 151.539 228.615 152.012 229.847 152.012C232.232 152.012 234.171 150.068 234.171 147.677C234.171 141.872 238.862 137.169 244.653 137.169C250.444 137.169 255.135 141.872 255.135 147.677C255.161 161.679 243.788 173.054 229.847 173.054Z" fill="url(#paint0_linear_340_5)"/>
<path d="M229.847 163.86C225.444 163.86 221.304 162.152 218.186 159.026L180.424 121.171C175.628 116.363 174.265 109.454 176.86 103.176C178.196 99.9706 180.371 97.3698 183.07 95.6097H155.686C149.973 95.6097 145.073 98.8935 142.871 104.174C140.67 109.454 141.849 115.26 145.885 119.305L162.211 135.672C167.007 140.479 168.369 147.388 165.775 153.667C163.181 159.945 157.337 163.86 150.55 163.86H150.026C145.623 163.86 141.483 162.152 138.364 159.026L123.296 143.921C123.977 147.099 123.663 150.462 122.353 153.667C119.758 159.945 113.915 163.86 107.127 163.86C102.725 163.86 98.5844 162.152 95.466 159.026L36.2419 99.6553C33.6214 97.0283 30.1361 95.5834 26.4411 95.5834C20.7284 95.5834 15.828 98.8672 13.6267 104.148C11.4517 109.428 12.6047 115.234 16.6403 119.279L32.9663 135.646C37.7619 140.453 39.1245 147.362 36.5302 153.641C33.9359 159.919 28.0921 163.833 21.3049 163.833H13.9674C13.2337 163.833 12.6571 163.256 12.6571 162.52C12.6571 161.784 13.2337 161.206 13.9674 161.206H21.3311C27.0439 161.206 31.9443 157.923 34.1455 152.642C36.3468 147.362 35.1675 141.556 31.1319 137.511L14.806 121.144C10.0104 116.363 8.64772 109.454 11.242 103.176C13.8364 96.8707 19.654 92.9564 26.4673 92.9564C30.8698 92.9564 35.0103 94.664 38.1287 97.7901L97.3528 157.161C99.9733 159.788 103.459 161.233 107.154 161.233C112.866 161.233 117.767 157.949 119.968 152.669C122.143 147.388 121.016 141.609 116.981 137.563L74.7114 95.2157C74.1873 94.6903 74.1873 93.8759 74.7114 93.3505C75.2355 92.8251 76.0479 92.8251 76.572 93.3505L118.789 135.672L118.815 135.698L140.225 157.161C142.845 159.788 146.331 161.233 150.026 161.233H150.55C156.262 161.233 161.163 157.949 163.364 152.669C165.539 147.388 164.386 141.583 160.35 137.537L144.024 121.171C139.229 116.363 137.866 109.454 140.461 103.176C143.055 96.897 148.899 92.9827 155.686 92.9827H198.374C199.108 92.9827 199.685 93.5606 199.685 94.2962C199.685 95.0318 199.108 95.6097 198.374 95.6097H192.085C186.372 95.6097 181.472 98.8935 179.271 104.174C177.096 109.454 178.249 115.26 182.284 119.305L220.046 157.161C222.667 159.788 226.152 161.233 229.847 161.233C237.289 161.233 243.343 155.164 243.343 147.704C243.343 146.968 243.919 146.39 244.653 146.39C245.387 146.39 245.963 146.968 245.963 147.704C245.989 156.609 238.757 163.86 229.847 163.86Z" fill="white"/>
<defs>
<linearGradient id="paint0_linear_340_5" x1="0.77683" y1="128.416" x2="255.149" y2="128.416" gradientUnits="userSpaceOnUse">
<stop stop-color="#FFA588"/>
<stop offset="0.271" stop-color="#FCB371"/>
<stop offset="0.8357" stop-color="#F4D837"/>
<stop offset="1" stop-color="#F1E425"/>
</linearGradient>
</defs>
</svg>
